<mxfile host="Electron" modified="2023-11-24T01:33:08.759Z" agent="Mozilla/5.0 (Windows NT 10.0; Win64; x64) AppleWebKit/537.36 (KHTML, like Gecko) draw.io/21.2.8 Chrome/112.0.5615.165 Electron/24.2.0 Safari/537.36" etag="rlmdcDnJ-2HKyYYScUAO" version="21.2.8" type="device">
  <diagram name="第 1 页" id="8_eoZxegZQMllnXBPVm5">
    <mxGraphModel dx="2035" dy="789" grid="0" gridSize="10" guides="1" tooltips="1" connect="1" arrows="1" fold="1" page="0" pageScale="1" pageWidth="3300" pageHeight="4681" math="0" shadow="0">
      <root>
        <mxCell id="0" />
        <mxCell id="1" parent="0" />
        <mxCell id="gWthYGYYA6JLAeO5fKec-9" value="" style="rounded=1;whiteSpace=wrap;html=1;fontSize=16;fillColor=#eeeeee;strokeColor=none;" vertex="1" parent="1">
          <mxGeometry x="-534" y="128" width="814" height="100" as="geometry" />
        </mxCell>
        <mxCell id="gWthYGYYA6JLAeO5fKec-2" value="数据库" style="shape=cylinder3;whiteSpace=wrap;html=1;boundedLbl=1;backgroundOutline=1;size=15;fontSize=16;" vertex="1" parent="1">
          <mxGeometry x="193" y="141" width="60" height="80" as="geometry" />
        </mxCell>
        <mxCell id="gWthYGYYA6JLAeO5fKec-3" value="单向函数" style="rounded=1;whiteSpace=wrap;html=1;fontSize=16;fillColor=#008a00;fontColor=#ffffff;strokeColor=#005700;fontStyle=1" vertex="1" parent="1">
          <mxGeometry x="-302" y="156" width="120" height="44" as="geometry" />
        </mxCell>
        <mxCell id="gWthYGYYA6JLAeO5fKec-4" value="前端" style="rounded=0;whiteSpace=wrap;html=1;fontSize=16;" vertex="1" parent="1">
          <mxGeometry x="-514" y="162" width="78" height="38" as="geometry" />
        </mxCell>
        <mxCell id="gWthYGYYA6JLAeO5fKec-5" value="" style="endArrow=classic;html=1;rounded=0;fontSize=12;startSize=8;endSize=8;curved=1;exitX=1;exitY=0.5;exitDx=0;exitDy=0;entryX=0;entryY=0.5;entryDx=0;entryDy=0;" edge="1" parent="1" source="gWthYGYYA6JLAeO5fKec-4" target="gWthYGYYA6JLAeO5fKec-3">
          <mxGeometry relative="1" as="geometry">
            <mxPoint x="-188" y="291" as="sourcePoint" />
            <mxPoint x="-88" y="291" as="targetPoint" />
          </mxGeometry>
        </mxCell>
        <mxCell id="gWthYGYYA6JLAeO5fKec-6" value="明文:123456" style="edgeLabel;resizable=0;html=1;align=center;verticalAlign=middle;fontSize=16;" connectable="0" vertex="1" parent="gWthYGYYA6JLAeO5fKec-5">
          <mxGeometry relative="1" as="geometry" />
        </mxCell>
        <mxCell id="gWthYGYYA6JLAeO5fKec-7" value="" style="endArrow=classic;html=1;rounded=0;fontSize=12;startSize=8;endSize=8;curved=1;entryX=0;entryY=0.5;entryDx=0;entryDy=0;entryPerimeter=0;exitX=1;exitY=0.5;exitDx=0;exitDy=0;" edge="1" parent="1" source="gWthYGYYA6JLAeO5fKec-3" target="gWthYGYYA6JLAeO5fKec-2">
          <mxGeometry relative="1" as="geometry">
            <mxPoint x="-43" y="128" as="sourcePoint" />
            <mxPoint x="-198" y="191" as="targetPoint" />
          </mxGeometry>
        </mxCell>
        <mxCell id="gWthYGYYA6JLAeO5fKec-8" value="密文:e10adc3949ba59abbe56e057f20f883e" style="edgeLabel;resizable=0;html=1;align=center;verticalAlign=middle;fontSize=16;" connectable="0" vertex="1" parent="gWthYGYYA6JLAeO5fKec-7">
          <mxGeometry relative="1" as="geometry" />
        </mxCell>
      </root>
    </mxGraphModel>
  </diagram>
</mxfile>
